<svg width="24" height="24" xmlns="http://www.w3.org/2000/svg">

 <g>
  <title>background</title>
  <rect fill="#000000" id="canvas_background" height="26" width="26" y="-1" x="-1"/>
 </g>
 <g>
  <title>Layer 1</title>
  <path stroke="null" fill="#e50914" id="svg_4" d="m22.602042,20.9l-7.599993,0c-0.300012,0 -0.500011,-0.2 -0.500011,-0.5l0,-2.5c0,-0.3 0.199999,-0.5 0.500011,-0.5l1.099995,0l0,-7l-2.800001,10.1c-0.1,0.2 -0.299999,0.4 -0.499998,0.4l-2.800001,0c-0.200013,0 -0.399998,-0.2 -0.499998,-0.4l-2.800001,-10.1l0,7l1.099995,0c0.299999,0 0.499998,0.2 0.499998,0.5l0,2.5c0,0.3 -0.199999,0.5 -0.499998,0.5l-6.299999,0c-0.299999,0 -0.499998,-0.2 -0.499998,-0.5l0,-2.5c0,-0.3 0.199999,-0.5 0.499998,-0.5l0.799996,0c0.1,0 0.199999,-0.1 0.300012,-0.2l0,-10.3c0,-0.1 -0.200013,-0.2 -0.300012,-0.2l-0.799996,0c-0.299999,0 -0.499998,-0.2 -0.499998,-0.5l0,-2.6c0,-0.3 0.199999,-0.5 0.499998,-0.5l7.900006,0c0.199999,0 0.399985,0.2 0.499998,0.4l2.200004,8l2.19999,-8c0.100013,-0.2 0.299999,-0.4 0.499998,-0.4l7.900006,0c0.299999,0 0.499998,0.2 0.499998,0.5l0,2.5c0,0.3 -0.199999,0.5 -0.499998,0.5l-0.799996,0c-0.1,0 -0.199999,0.2 -0.300012,0.3l0,10.4c0,0 0.200013,0.2 0.300012,0.2l0.799996,0c0.299999,0 0.499998,0.2 0.499998,0.5l0,2.5l-0.599997,0.4zm-7.099996,-1l6.599984,0l0,-1.5l-0.299985,0c-0.499998,0 -1.199995,-0.6 -1.199995,-1.2l0,-10.4c0,-0.6 0.699997,-1.2 1.199995,-1.2l0.299985,0l0,-1.5l-6.999982,0l-2.500016,9.3c-0.1,0.2 -0.299985,0.4 -0.499984,0.4c-0.200013,0 -0.499998,-0.2 -0.600011,-0.4l-2.500002,-9.3l-6.999982,0l0,1.5l0.299985,0c0.599997,0 1.299994,0.7 1.299994,1.2l0,10.4c0,0.6 -0.699997,1.2 -1.299994,1.2l-0.299985,0l0,1.5l5.29999,0l0,-1.5l-1.100009,0c-0.299985,0 -0.499998,-0.2 -0.499998,-0.5l0,-10.9c0,-0.3 0.200013,-0.5 0.499998,-0.5c0.199999,0 0.500011,0.2 0.600011,0.4l3.599998,13l2.099991,0l3.600011,-13c0.1,-0.2 0.299999,-0.4 0.499998,-0.4c0.199999,0 0.499998,0.2 0.499998,0.5l0,10.9c0,0.3 -0.199999,0.5 -0.499998,0.5l-1.099995,0l0,1.5z"/>
 </g>
</svg>