<svg width="405.028759765625px" height="138.78751220703123px" xmlns="http://www.w3.org/2000/svg" viewBox="47.485620117187494 5.606243896484386 405.028759765625 138.78751220703123" style="background: none;" preserveAspectRatio="xMidYMid"><defs><filter id="editing-hole" x="-100%" y="-100%" width="300%" height="300%"><feFlood flood-color="none" result="black"></feFlood><feMorphology operator="dilate" radius="2" in="SourceGraphic" result="erode"></feMorphology><feGaussianBlur in="erode" stdDeviation="4" result="blur"></feGaussianBlur><feOffset in="blur" dx="2" dy="2" result="offset"></feOffset><feComposite operator="atop" in="offset" in2="black" result="merge"></feComposite><feComposite operator="in" in="merge" in2="SourceGraphic" result="inner-shadow"></feComposite></filter></defs><g filter="url(#editing-hole)"><g transform="translate(108.23219180107117, 99.87937545776367)"><path d="M71.87-49.79L71.87-39.30L68.67-39.30L68.67-10.50L71.87-10.50L71.87 0L47.68 0L47.68-10.50L50.75-10.50L50.75-32.90L39.87 0L30.40 0L19.20-32.58L19.20-10.50L22.27-10.50L22.27 0L1.28 0L1.28-10.50L4.48-10.50L4.48-39.30L1.28-39.30L1.28-49.79L30.59-49.79L37.25-29.82L43.65-49.79L71.87-49.79ZM102.40-39.30L102.40-49.79L122.05-49.79L122.05-39.30L119.49-39.30L107.14-17.15L107.14-10.50L110.34-10.50L110.34 0L86.02 0L86.02-10.50L89.22-10.50L89.22-17.15L76.48-39.30L73.92-39.30L73.92-49.79L98.69-49.79L98.69-39.30L96.45-39.30L100.22-29.38L100.86-29.38L104.64-39.30L102.40-39.30ZM153.60 0L124.10 0L124.10-10.50L127.30-10.50L127.30-39.30L124.10-39.30L124.10-49.79L162.37-49.79L162.37-33.22L151.04-33.22L151.04-39.30L145.22-39.30L145.22-28.67L154.88-28.67L154.88-21.38L145.22-21.38L145.22-10.50L153.60-10.50L153.60 0ZM204.16 0L164.54 0L164.54-10.50L167.74-10.50L167.74-39.30L164.54-39.30L164.54-49.79L191.55-49.79L191.55-39.30L185.66-39.30L185.66-10.50L191.42-10.50L191.42-16.38L204.16-16.38L204.16 0ZM230.66 0L206.34 0L206.34-10.50L209.54-10.50L209.54-39.30L206.34-39.30L206.34-49.79L230.66-49.79L230.66-39.30L227.46-39.30L227.46-10.50L230.66-10.50L230.66 0ZM266.56-25.66L279.55-10.50L282.24-10.50L282.24 0L258.05 0L258.05-10.50L260.67-10.50L256.96-15.74L256.32-15.74L252.61-10.50L255.23-10.50L255.23 0L232.83 0L232.83-10.50L236.16-10.50L248.45-24.32L235.65-39.30L232.96-39.30L232.96-49.79L256.96-49.79L256.96-39.30L254.53-39.30L258.05-34.05L258.69-34.05L262.21-39.30L259.78-39.30L259.78-49.79L281.98-49.79L281.98-39.30L278.66-39.30L266.56-25.66Z" fill="#e50914"></path></g></g><style>text {
  font-size: 64px;
  font-family: Arial Black;
  dominant-baseline: central;
  text-anchor: middle;
}</style></svg>