<svg width="119.471240234375px" height="138.7874755859375px" xmlns="http://www.w3.org/2000/svg" viewBox="190.2643798828125 5.60626220703125 119.471240234375 138.7874755859375" style="background: none;" preserveAspectRatio="xMidYMid"><defs><filter id="editing-hole" x="-100%" y="-100%" width="300%" height="300%"><feFlood flood-color="none" result="black"></feFlood><feMorphology operator="dilate" radius="2" in="SourceGraphic" result="erode"></feMorphology><feGaussianBlur in="erode" stdDeviation="4" result="blur"></feGaussianBlur><feOffset in="blur" dx="2" dy="2" result="offset"></feOffset><feComposite operator="atop" in="offset" in2="black" result="merge"></feComposite><feComposite operator="in" in="merge" in2="SourceGraphic" result="inner-shadow"></feComposite></filter></defs><g filter="url(#editing-hole)"><g transform="translate(213.41718554496765, 99.87937545776367)"><path d="M71.87-49.79L71.87-39.30L68.67-39.30L68.67-10.50L71.87-10.50L71.87 0L47.68 0L47.68-10.50L50.75-10.50L50.75-32.90L39.87 0L30.40 0L19.20-32.58L19.20-10.50L22.27-10.50L22.27 0L1.28 0L1.28-10.50L4.48-10.50L4.48-39.30L1.28-39.30L1.28-49.79L30.59-49.79L37.25-29.82L43.65-49.79L71.87-49.79Z" fill="#e50914"></path></g></g><style>text {
  font-size: 64px;
  font-family: Arial Black;
  dominant-baseline: central;
  text-anchor: middle;
}</style></svg>