<svg width="471.24376220703124px" height="159.7824951171875px" xmlns="http://www.w3.org/2000/svg" viewBox="14.37811889648438 -4.891247558593747 471.24376220703124 159.7824951171875" style="background: rgb(34, 31, 31);" preserveAspectRatio="xMidYMid"><defs><filter id="editing-extrude-glow"><feFlood flood-color="none" result="flood-1"></feFlood><feMorphology operator="erode" radius="1" in="SourceAlpha" result="erode"></feMorphology><feComposite operator="in" in="flood-1" in2="erode" result="comp1"></feComposite><feConvolveMatrix order="3,3" divisor="1" in="comp1" result="convolve" kernelMatrix="0 0 0 1 1 1 0 0 0"></feConvolveMatrix><feOffset dx="-3" dy="0" in="convolve" result="extrude"></feOffset><feComposite operator="in" in="flood-1" in2="extrude" result="comp-extrude"></feComposite><feFlood flood-color="none" result="flood-2"></feFlood><feComposite operator="in" in="flood-2" in2="SourceAlpha" result="comp2"></feComposite><feMorphology operator="dilate" radius="1" in="comp2" result="dilate"></feMorphology><feOffset dx="-4.5" dy="0" in="dilate" result="offset"></feOffset><feGaussianBlur in="offset" stdDeviation="5.8" result="blur"></feGaussianBlur><feComponentTransfer in="blur" result="shadow"><feFuncA type="linear" slope="0.8" intercept="-0.2"></feFuncA></feComponentTransfer><feMerge><feMergeNode in="shadow"></feMergeNode><feMergeNode in="comp-extrude"></feMergeNode><feMergeNode in="SourceGraphic"></feMergeNode></feMerge></filter></defs><g filter="url(#editing-extrude-glow)"><g transform="translate(83.8671875, 104.40937423706055)"><path d="M84.22-58.35L84.22-46.05L80.47-46.05L80.47-12.30L84.22-12.30L84.22 0L55.88 0L55.88-12.30L59.47-12.30L59.47-38.55L46.73 0L35.63 0L22.50-38.17L22.50-12.30L26.10-12.30L26.10 0L1.50 0L1.50-12.30L5.25-12.30L5.25-46.05L1.50-46.05L1.50-58.35L35.85-58.35L43.65-34.95L51.15-58.35L84.22-58.35ZM120-46.05L120-58.35L143.02-58.35L143.02-46.05L140.02-46.05L125.55-20.10L125.55-12.30L129.30-12.30L129.30 0L100.80 0L100.80-12.30L104.55-12.30L104.55-20.10L89.63-46.05L86.63-46.05L86.63-58.35L115.65-58.35L115.65-46.05L113.02-46.05L117.45-34.42L118.20-34.42L122.63-46.05L120-46.05ZM180.00 0L145.42 0L145.42-12.30L149.17-12.30L149.17-46.05L145.42-46.05L145.42-58.35L190.27-58.35L190.27-38.92L177.00-38.92L177.00-46.05L170.17-46.05L170.17-33.60L181.50-33.60L181.50-25.05L170.17-25.05L170.17-12.30L180.00-12.30L180.00 0ZM239.25 0L192.82 0L192.82-12.30L196.57-12.30L196.57-46.05L192.82-46.05L192.82-58.35L224.47-58.35L224.47-46.05L217.57-46.05L217.57-12.30L224.32-12.30L224.32-19.20L239.25-19.20L239.25 0ZM270.30 0L241.80 0L241.80-12.30L245.55-12.30L245.55-46.05L241.80-46.05L241.80-58.35L270.30-58.35L270.30-46.05L266.55-46.05L266.55-12.30L270.30-12.30L270.30 0ZM312.37-30.07L327.60-12.30L330.75-12.30L330.75 0L302.40 0L302.40-12.30L305.47-12.30L301.12-18.45L300.37-18.45L296.02-12.30L299.10-12.30L299.10 0L272.85 0L272.85-12.30L276.75-12.30L291.15-28.50L276.15-46.05L273.00-46.05L273.00-58.35L301.12-58.35L301.12-46.05L298.27-46.05L302.40-39.90L303.15-39.90L307.27-46.05L304.42-46.05L304.42-58.35L330.45-58.35L330.45-46.05L326.55-46.05L312.37-30.07Z" fill="#e50914"></path></g></g><style>text {
  font-size: 64px;
  font-family: Arial Black;
  dominant-baseline: central;
  text-anchor: middle;
}</style></svg>